<?xml version="1.0" encoding="UTF-8"?>
<svg version="1.1" xmlns="http://www.w3.org/2000/svg" width="626" height="548">
<path d="M0 0 C206.58 0 413.16 0 626 0 C626 180.84 626 361.68 626 548 C419.42 548 212.84 548 0 548 C0 367.16 0 186.32 0 0 Z " fill="#FEFEFE" transform="translate(0,0)"/>
<path d="M0 0 C1.18177035 -0.00352835 1.18177035 -0.00352835 2.38741484 -0.00712797 C5.04949053 -0.01382923 7.71151753 -0.01335941 10.37360096 -0.01294994 C12.29264631 -0.01624786 14.21169097 -0.01997328 16.13073474 -0.02409142 C21.42164622 -0.03412766 26.71254636 -0.03783082 32.00346601 -0.04048073 C37.70301095 -0.04437896 43.40254687 -0.0539576 49.10208607 -0.0626936 C62.87481515 -0.08247128 76.64754498 -0.09252571 90.42028472 -0.10142139 C96.90200598 -0.10580201 103.38372643 -0.11116939 109.86544704 -0.11641026 C131.4049535 -0.13342356 152.94445865 -0.14794353 174.48397064 -0.155159 C175.87719184 -0.15563375 177.27041303 -0.15610964 178.66363423 -0.15658666 C179.3545519 -0.15682303 180.04546957 -0.15705941 180.75732414 -0.15730295 C184.25790051 -0.15850416 187.75847687 -0.1597196 191.25905323 -0.16094494 C192.30110618 -0.16130516 192.30110618 -0.16130516 193.3642107 -0.16167267 C215.89011172 -0.16956629 238.4159601 -0.19299915 260.94183813 -0.22550088 C284.75304721 -0.25979449 308.56421905 -0.27950855 332.37545425 -0.28280324 C345.35702415 -0.28497068 358.33851668 -0.29375357 371.32006359 -0.31926441 C382.37378803 -0.34093627 393.42741631 -0.34903914 404.48115959 -0.33929763 C410.12261401 -0.3347428 415.76386989 -0.33670792 421.40529728 -0.35605907 C426.56900663 -0.37361887 431.73237152 -0.37275148 436.89608417 -0.35716178 C438.76490386 -0.35477478 440.63374697 -0.35916556 442.50253078 -0.37099043 C445.04270988 -0.38606899 447.58166211 -0.3764654 450.12181091 -0.36076355 C450.84756224 -0.37098576 451.57331356 -0.38120796 452.32105735 -0.39173993 C458.84956879 -0.30364848 463.96423663 1.99469589 468.83644581 6.31781483 C469.78390675 7.43349842 469.78390675 7.43349842 470.75050831 8.57172108 C471.39761768 9.31293201 472.04472706 10.05414295 472.71144581 10.81781483 C476.21146994 15.68991415 476.66795398 20.09747166 476.64293385 25.97072315 C476.64973051 27.14472763 476.64973051 27.14472763 476.65666449 28.34244937 C476.66931161 30.96165812 476.66768792 33.58065902 476.66603565 36.19989491 C476.67202073 38.07925655 476.67882623 39.95861574 476.68639088 41.83797169 C476.7040607 46.94136893 476.70874669 52.04469911 476.71002245 57.14812398 C476.71144411 60.33743789 476.715714 63.52673475 476.72101688 66.71604443 C476.73952077 77.84511237 476.74768709 88.9741324 476.74611378 100.10321522 C476.74491244 110.47276698 476.76601233 120.84211057 476.7976011 131.21160966 C476.82376452 140.11792886 476.83448104 149.02418007 476.83320296 157.9305374 C476.83269332 163.24829595 476.8383774 168.56586952 476.85955906 173.88358974 C476.87894231 178.88642581 476.87906521 183.88890047 476.86452579 188.89174938 C476.86243668 190.72510144 476.86714471 192.55847613 476.87924671 194.39178944 C476.89473119 196.90053801 476.88537067 199.40804537 476.86998463 201.91676807 C476.88027175 202.63711682 476.89055888 203.35746556 476.90115774 204.09964305 C476.81328375 210.61220696 474.49675687 215.70442727 470.22707081 220.59515858 C469.49230518 221.2267992 468.75753956 221.85843983 468.00050831 222.50922108 C467.27089893 223.15633045 466.54128956 223.80343983 465.78957081 224.47015858 C460.64890481 228.01372446 455.4841366 228.42585944 449.3974905 228.39148998 C448.21306042 228.39674909 448.21306042 228.39674909 447.00470245 228.40211445 C444.35460345 228.41143005 441.70472412 228.40650472 439.05461597 228.40164661 C437.13710519 228.40538278 435.21959593 228.40998417 433.3020891 228.41537726 C428.02934085 228.42762662 422.75665596 228.42734451 417.48389673 228.42498851 C411.79871451 228.42458084 406.11355274 228.43561469 400.42838001 228.44510365 C389.2891395 228.4617248 378.14992016 228.46721368 367.01066829 228.4683284 C357.95814908 228.46927827 348.90563685 228.47338547 339.85311985 228.47972965 C318.37268048 228.49447761 296.892248 228.50677908 275.41180325 228.50573254 C274.38140498 228.5056858 274.38140498 228.5056858 273.33019059 228.50563812 C269.84852383 228.5054719 266.36685708 228.50527382 262.88519032 228.5050687 C262.193717 228.50502881 261.50224367 228.50498892 260.7898166 228.50494782 C259.39148946 228.50486695 257.99316232 228.50478335 256.59483518 228.50469704 C234.83615263 228.50347136 213.0775324 228.51848792 191.31886768 228.54584217 C166.87407576 228.57656066 142.42933193 228.5937495 117.98451841 228.59191573 C105.04100392 228.59125117 92.09755972 228.59677228 79.15406132 228.61827183 C68.13517206 228.63645705 57.11638497 228.64085276 46.09748723 228.62725298 C40.47424299 228.62071017 34.8511949 228.62065362 29.22796917 228.63795948 C24.08102658 228.65363686 18.93443652 228.65088115 13.78750281 228.63339122 C11.92483188 228.63030957 10.06213499 228.63399732 8.19949467 228.64511137 C5.66763891 228.65921884 3.13702209 228.64865753 0.6052084 228.63199902 C-0.11808104 228.64193538 -0.84137048 228.65187173 -1.58657777 228.6621092 C-7.98317749 228.57311965 -13.06411189 226.37285404 -17.83152294 222.20453358 C-18.36132763 221.56258045 -18.89113232 220.92062733 -19.43699169 220.25922108 C-19.979687 219.6224242 -20.52238232 218.98562733 -21.08152294 218.32953358 C-24.83599124 212.98773311 -26.06674894 208.58019203 -26.02563 202.10826588 C-26.03242667 201.31728026 -26.03922334 200.52629465 -26.04622597 199.71133977 C-26.06516491 197.06985735 -26.06276331 194.42883991 -26.06028271 191.78729725 C-26.06926233 189.88970311 -26.07947104 187.99211444 -26.09081554 186.09453297 C-26.11729952 180.94565849 -26.12434835 175.79693362 -26.1262629 170.64799762 C-26.12839651 167.42934762 -26.13480344 164.21073556 -26.14275455 160.99209499 C-26.17050312 149.75811444 -26.18276073 138.52424062 -26.18039989 127.29022694 C-26.1785979 116.82684113 -26.21024904 106.36391951 -26.25763088 95.90065116 C-26.29688895 86.91020822 -26.31295026 77.9199168 -26.31103367 68.92938882 C-26.31026961 63.56289619 -26.3187732 58.19681612 -26.35056782 52.83040905 C-26.37966539 47.78145048 -26.37981277 42.73329733 -26.35801792 37.68430996 C-26.35488699 35.8352449 -26.36193025 33.98612921 -26.3800993 32.13715076 C-26.53505306 15.2708455 -26.53505306 15.2708455 -21.15055275 8.65488625 C-19.1931895 6.70444389 -17.31074956 5.05930433 -14.93699169 3.63422108 C-14.1906245 3.17015858 -13.44425732 2.70609608 -12.67527294 2.22797108 C-8.45428948 -0.0232201 -4.6557403 -0.00936646 0 0 Z " fill="#6FB241" transform="translate(87.62449169158936,159.86577892303467)"/>
<path d="M0 0 C34.49796133 -0.11448152 68.99587925 -0.20256719 103.49398955 -0.25532665 C107.56817759 -0.26158007 111.64236525 -0.26805169 115.71655273 -0.2746582 C116.93318237 -0.27662553 116.93318237 -0.27662553 118.17439038 -0.2786326 C131.30188375 -0.30038034 144.42926746 -0.33979837 157.55669581 -0.38576398 C171.02987028 -0.43254624 184.50298738 -0.46029913 197.97623974 -0.47044247 C206.28786552 -0.47729799 214.59918136 -0.49893859 222.91071171 -0.53958233 C228.6127324 -0.56604259 234.31459321 -0.5739936 240.01667082 -0.56750689 C243.30503521 -0.56430899 246.5927457 -0.57190533 249.88103867 -0.59602737 C253.45163517 -0.62093511 257.02090985 -0.61491166 260.59153748 -0.60127258 C261.62365984 -0.61583679 262.6557822 -0.630401 263.719181 -0.64540654 C271.75370806 -0.56255445 277.35427662 1.78001076 283.375 7.09765625 C284.179375 8.07025391 284.179375 8.07025391 285 9.0625 C285.8353125 10.03896484 285.8353125 10.03896484 286.6875 11.03515625 C289.31246577 14.96479251 289.12549338 18.89968634 289.12698364 23.52832031 C289.12854363 24.18228413 289.13010362 24.83624794 289.13171089 25.51002884 C289.13569671 27.69941721 289.13254061 29.88873613 289.12939453 32.078125 C289.13074964 33.64855998 289.1325302 35.21899465 289.13470459 36.78942871 C289.13926583 41.05379515 289.13749472 45.31813741 289.1343255 49.58250427 C289.13179516 54.04361029 289.13414133 58.50471422 289.13571167 62.96582031 C289.13753139 70.45768608 289.13513222 77.94954198 289.13037109 85.44140625 C289.12492885 94.10512202 289.12669165 102.76881425 289.1321975 111.43252945 C289.13673424 118.86870653 289.13737642 126.30487652 289.13475883 133.74105453 C289.13319916 138.18337134 289.13299385 142.62567707 289.13629532 147.06799316 C289.13918216 151.24417727 289.13718332 155.42033102 289.13140106 159.59651184 C289.13007784 161.12998911 289.13046018 162.66346893 289.13266373 164.19694519 C289.13539238 166.28855796 289.13197304 168.38007315 289.12698364 170.47167969 C289.12660662 171.64269226 289.12622959 172.81370483 289.12584114 174.02020264 C289.01950566 176.5381247 288.74005998 178.60567363 288 181 C287.34 181 286.68 181 286 181 C285.85111328 181.89525391 285.85111328 181.89525391 285.69921875 182.80859375 C284.86522999 185.42237976 283.90918608 186.32683271 281.8125 188.0625 C281.24144531 188.54847656 280.67039062 189.03445313 280.08203125 189.53515625 C273.25175268 194.34069933 267.72338161 194.4209804 259.58560181 194.36076355 C258.32274113 194.36332682 257.05988045 194.3658901 255.75875127 194.36853105 C252.26051885 194.37523004 248.76256267 194.36325162 245.26436543 194.34819686 C241.4893847 194.33523222 237.71441934 194.33962626 233.93942261 194.34190369 C227.40133605 194.34347615 220.86333937 194.33406977 214.32527542 194.31719017 C204.87236661 194.29280109 195.41950121 194.28499499 185.96656434 194.2812262 C170.6295404 194.27466157 155.29256435 194.2547001 139.95556641 194.22631836 C125.05778238 194.19877809 110.16001137 194.17754435 95.26220703 194.16479492 C94.34378873 194.16400675 93.42537044 194.16321858 92.47912128 194.16240653 C87.87165122 194.15849139 83.26418107 194.15470027 78.65671086 194.15097082 C40.43777371 194.11987456 2.21889002 194.06703844 -36 194 C-35.34 192.35 -34.68 190.7 -34 189 C-33.34 189 -32.68 189 -32 189 C-31.814375 188.05125 -31.62875 187.1025 -31.4375 186.125 C-30.4791036 182.74715535 -28.97831711 180.4230346 -26.875 177.625 C-23.52958131 173.06625336 -21.06817884 168.35427184 -18.6875 163.25 C-18.35024902 162.52893066 -18.01299805 161.80786133 -17.66552734 161.06494141 C-15.85441617 157.10685356 -14.29021017 153.16534856 -13 149 C-12.34 149 -11.68 149 -11 149 C-10.87882812 148.34773437 -10.75765625 147.69546875 -10.6328125 147.0234375 C-9.71056011 142.21353658 -8.69832723 137.60974535 -7 133 C-6.34 133 -5.68 133 -5 133 C-4.896875 132.030625 -4.79375 131.06125 -4.6875 130.0625 C-4.29148478 127.22427369 -3.5968562 124.76296405 -2.5859375 122.0859375 C-0.52843251 116.04692241 0.21678965 109.86530427 1.0625 103.5625 C1.38425118 101.23012702 1.70843216 98.89808781 2.03515625 96.56640625 C2.1731665 95.54490479 2.31117676 94.52340332 2.45336914 93.47094727 C2.88901948 90.70469405 3.43450225 88.03410085 4.03930664 85.30395508 C5.17297347 79.7086676 5.32327697 74.26565858 5.3359375 68.5703125 C5.3425943 67.49989716 5.3492511 66.42948181 5.35610962 65.32662964 C5.36618253 63.0693329 5.37092831 60.81200669 5.37060547 58.5546875 C5.37494395 55.16874558 5.41122697 51.78414659 5.44921875 48.3984375 C5.51044712 36.32760639 4.75729018 25.09340447 1.95947266 13.33544922 C1.23794113 10.30241645 0.76265861 7.32969989 0.44003296 4.22903442 C0.3558782 3.43284258 0.27172344 2.63665073 0.18501854 1.81633186 C0.12396242 1.21694235 0.0629063 0.61755283 0 0 Z " fill="#52A41D" transform="translate(256,177)"/>
<path d="M0 0 C58.84727152 -0.09151841 117.69454061 -0.16202796 176.54186851 -0.20426132 C183.48640856 -0.20925067 190.43094845 -0.21443689 197.37548828 -0.21972656 C198.06655438 -0.2202496 198.75762047 -0.22077263 199.46962796 -0.22131152 C221.87006909 -0.23835766 244.27046987 -0.26840345 266.67088655 -0.30518888 C290.3422695 -0.34399087 314.01361846 -0.3679839 337.6850338 -0.37635398 C351.86669216 -0.3818475 366.04823468 -0.39920995 380.22985739 -0.43166587 C389.94945195 -0.45277943 399.66898647 -0.45920719 409.38860232 -0.45400551 C414.99966122 -0.45143883 420.61051742 -0.45542466 426.22154045 -0.4768219 C431.35760738 -0.4962652 436.49333498 -0.49728428 441.62941742 -0.48359558 C443.4882353 -0.48190336 445.34707422 -0.48699625 447.2058506 -0.49953273 C449.73257325 -0.51558435 452.25807085 -0.50693526 454.78477478 -0.49219131 C455.50657061 -0.50269937 456.22836644 -0.51320742 456.97203487 -0.5240339 C463.55139623 -0.43726947 468.60530791 1.87518591 473.4609375 6.18359375 C474.40839844 7.29927734 474.40839844 7.29927734 475.375 8.4375 C476.02210938 9.17871094 476.66921875 9.91992188 477.3359375 10.68359375 C480.83596164 15.55569307 481.29244567 19.96325058 481.26742554 25.83650208 C481.27422221 27.01050655 481.27422221 27.01050655 481.28115618 28.20822829 C481.2938033 30.82743704 481.29217962 33.44643794 481.29052734 36.06567383 C481.29651242 37.94503547 481.30331792 39.82439466 481.31088257 41.70375061 C481.32855239 46.80714785 481.33323838 51.91047803 481.33451414 57.0139029 C481.3359358 60.20321681 481.34020569 63.39251367 481.34550858 66.58182335 C481.36401246 77.71089129 481.37217878 88.83991132 481.37060547 99.96899414 C481.36940414 110.3385459 481.39050402 120.7078895 481.4220928 131.07738858 C481.44825621 139.98370778 481.45897273 148.889959 481.45769465 157.79631633 C481.45718501 163.11407487 481.4628691 168.43164844 481.48405075 173.74936867 C481.503434 178.75220473 481.50355691 183.75467939 481.48901749 188.75752831 C481.48692837 190.59088037 481.49163641 192.42425505 481.5037384 194.25756836 C481.51922288 196.76631693 481.50986236 199.2738243 481.49447632 201.782547 C481.50476344 202.50289574 481.51505057 203.22324448 481.52564943 203.96542197 C481.43777544 210.47798589 479.12124856 215.57020619 474.8515625 220.4609375 C474.11679687 221.09257812 473.38203125 221.72421875 472.625 222.375 C471.89539063 223.02210938 471.16578125 223.66921875 470.4140625 224.3359375 C465.87799695 227.46273996 461.43115854 228.25013469 455.99865913 228.24609566 C454.81280853 228.25007775 453.62695793 228.25405985 452.40517247 228.25816262 C451.11139994 228.25233693 449.81762741 228.24651125 448.48464966 228.24050903 C447.08941281 228.24138153 445.69417628 228.24313332 444.29894149 228.24568737 C440.47012514 228.25015624 436.64142082 228.24216354 432.81261873 228.23213124 C428.68180631 228.22349243 424.55100019 228.22641721 420.42018127 228.22793579 C413.26497018 228.22898437 406.10979557 228.2227106 398.95459366 228.21146011 C388.60938428 228.1952044 378.26419253 228.18999703 367.91897176 228.18748413 C351.13444774 228.18310714 334.34994316 228.16979793 317.56542969 228.15087891 C301.2610687 228.13252021 284.95671299 228.11836365 268.65234375 228.10986328 C267.144782 228.10907511 267.144782 228.10907511 265.60676445 228.10827102 C260.56475628 228.10566094 255.52274807 228.10313352 250.48073983 228.10064721 C208.65381303 228.07991459 166.82690763 228.04468894 125 228 C126.26342773 226.52701823 127.52685547 225.05403646 128.7902832 223.58105469 C130.34832149 221.54475682 131.13364158 219.3991464 132 217 C134.55759305 214.44240695 135.48070045 214.74915643 139.031106 214.74666691 C140.10242364 214.74105151 141.17374128 214.73543612 142.2775231 214.72965056 C143.46397041 214.73363165 144.65041773 214.73761274 145.87281799 214.74171448 C147.12591088 214.73803877 148.37900376 214.73436307 149.67006916 214.73057598 C153.15989046 214.72055774 156.64961169 214.72297829 160.13944066 214.72730291 C163.89899781 214.72977206 167.65852819 214.72071974 171.41807556 214.71292114 C177.93762732 214.70085696 184.4571546 214.69576718 190.976717 214.69503975 C200.41279539 214.69371572 209.84881427 214.67861744 219.28487169 214.65954458 C234.60600411 214.62867478 249.92713803 214.60452403 265.24829102 214.58666992 C266.16590857 214.58559724 267.08352612 214.58452456 268.02895027 214.58341938 C278.25979772 214.57160681 288.49064578 214.56140155 298.72149658 214.55297852 C302.42736818 214.54990486 306.13323976 214.54681602 309.83911133 214.54370117 C310.75349189 214.54293583 311.66787245 214.54217049 312.60996152 214.54138196 C327.86413056 214.52829389 343.11825673 214.50364267 358.37239403 214.46995777 C367.78190412 214.44967661 377.19132245 214.43937717 386.60085457 214.44194698 C393.05320551 214.4429832 399.50548403 214.43332663 405.95780969 214.41530795 C409.67940378 214.40527675 413.4008376 214.40011983 417.12244034 214.40807533 C421.16120337 214.41660589 425.19955922 214.40199811 429.23829651 214.38526917 C430.40912877 214.39148098 431.57996103 214.3976928 432.78627306 214.40409285 C442.03104552 214.33432133 449.60536497 212.84692072 457 207 C462.0109458 201.55954456 464.37120885 196.53074359 464.39440918 189.11296082 C464.40354584 188.11024225 464.40354584 188.11024225 464.41286707 187.08726674 C464.42943851 184.8603297 464.42472988 182.63396813 464.41992188 180.40698242 C464.42726573 178.80495106 464.43585288 177.20292499 464.44558716 175.60090637 C464.46778095 171.25777371 464.47073484 166.9148309 464.46883965 162.57164931 C464.46871982 158.94111494 464.47728896 155.31062061 464.48561716 151.6800974 C464.50484432 143.11116724 464.50773788 134.54233449 464.50097656 125.97338867 C464.49433915 117.1459763 464.51718954 108.31898214 464.55429029 99.49165457 C464.58502487 91.90247165 464.59634317 84.31342298 464.59245348 76.72417909 C464.59038951 72.19609466 464.59581028 67.66833556 464.62034607 63.14031029 C464.64267238 58.87933067 464.64068696 54.61902879 464.62041855 50.35804558 C464.61701863 48.79924743 464.6220536 47.24040314 464.63640213 45.68166733 C464.72594152 35.22868385 463.72001508 27.93955066 456.3125 20.1875 C446.4585261 13.68015874 437.13478952 13.42385766 425.70077515 13.48101807 C423.94322274 13.47513715 422.18567548 13.46750716 420.42813742 13.458287 C415.61637277 13.43807367 410.80490375 13.44256841 405.99311614 13.45119452 C400.79757239 13.45614614 395.60210224 13.43804602 390.40658569 13.42277527 C381.41091592 13.39947613 372.41532673 13.39071415 363.41962814 13.39188385 C350.41344868 13.39355392 337.40737657 13.37320984 324.40122576 13.34752855 C303.29857631 13.30645655 282.19594619 13.28313691 261.09326172 13.27099609 C240.59649804 13.25916583 220.09977073 13.23896564 199.60302734 13.20751953 C198.33916845 13.20558343 197.07530956 13.20364733 195.77315192 13.20165256 C189.43261183 13.1918879 183.09207202 13.18195881 176.75153232 13.17194796 C124.16770605 13.08913792 71.58387824 13.03514455 19 13 C19 12.67 19 12.34 19 12 C69.16 12 119.32 12 171 12 C170.01 9.03 170.01 9.03 169 6 C169 4.35 169 2.7 169 1 C113.23 1 57.46 1 0 1 C0 0.67 0 0.34 0 0 Z " fill="#52A31E" transform="translate(83,160)"/>
<path d="M0 0 C0.70493428 0.00322913 1.40986856 0.00645826 2.13616449 0.00978523 C4.50386101 0.0218719 6.87144223 0.04124234 9.23908997 0.06056213 C10.93408965 0.0707037 12.62909206 0.0803975 14.32409668 0.0896759 C18.93124764 0.11616916 23.53833524 0.1489462 28.145437 0.1828258 C32.95807038 0.21715667 37.77073773 0.2457441 42.58340454 0.27493286 C51.69940426 0.33109806 60.81536143 0.39245121 69.93131477 0.4556542 C80.30842916 0.52734956 90.68557763 0.59328279 101.06273305 0.65872467 C122.41168341 0.7934879 143.7605804 0.93551115 165.10945129 1.08229065 C166.30232541 4.95913152 167.10945129 7.99850988 167.10945129 12.08229065 C167.96707111 12.08318628 167.96707111 12.08318628 168.84201658 12.08410001 C202.74553188 12.12001172 236.64894444 12.17667795 270.55237552 12.2602116 C274.62527411 12.27022878 278.69817311 12.28007296 282.77107239 12.28981018 C283.98730856 12.29272224 283.98730856 12.29272224 285.22811516 12.29569313 C298.34840413 12.32669495 311.46867562 12.3436887 324.58899431 12.35548487 C338.0565802 12.36790586 351.52407449 12.39542863 364.99160254 12.43690372 C373.29852169 12.46201204 381.6052889 12.47540988 389.91224654 12.47372022 C395.61244286 12.47369041 401.31248466 12.48835979 407.01262073 12.51445493 C410.29895692 12.5290698 413.58491367 12.53514826 416.87128448 12.52809334 C420.44143833 12.52145072 424.01067292 12.53938248 427.58073425 12.56330872 C428.60994377 12.5555483 429.6391533 12.54778788 430.69955099 12.5397923 C439.05523702 12.63866872 447.11554205 14.60305351 453.48445129 20.33229065 C454.09031067 20.8530719 454.69617004 21.37385315 455.32038879 21.91041565 C461.94965215 29.95816767 461.68899209 37.97144434 461.64289856 47.90235901 C461.64996396 49.50468742 461.65871158 51.10700915 461.66900635 52.70932007 C461.6914408 57.04413322 461.68857459 61.37858023 461.67968488 65.71342921 C461.67456189 69.33910123 461.68187817 72.96470523 461.68915695 76.59037024 C461.70613712 85.14690135 461.70260917 93.70325404 461.68586731 102.25978088 C461.66894664 111.0724815 461.68478393 119.88468675 461.71709019 128.69733328 C461.74382247 136.27807675 461.75105232 143.85866637 461.74257511 151.43945223 C461.73765663 155.96078365 461.73980289 160.48181711 461.76036263 165.00311089 C461.77877717 169.25593381 461.77269123 173.5080466 461.74816322 177.76083183 C461.74317359 179.3163976 461.74659692 180.87201802 461.75931168 182.42753983 C461.83170482 192.04946789 461.30506243 199.71651363 454.33603764 206.91378689 C447.95713965 212.83045887 441.31115733 215.20081994 432.68964863 215.21536922 C431.06723711 215.22173079 431.06723711 215.22173079 429.41204959 215.22822088 C428.22956596 215.22783475 427.04708233 215.22744861 425.82876587 215.22705078 C424.56817075 215.23057763 423.30757563 215.23410447 422.00878066 215.23773819 C418.51225229 215.24742197 415.01574026 215.25098431 411.51920044 215.25358117 C407.7475641 215.25747924 403.97594213 215.26711606 400.20431519 215.27613831 C393.67007554 215.29106924 387.13583702 215.30261696 380.6015873 215.31208611 C371.15196921 215.32595901 361.70237785 215.34714576 352.25277897 215.37051464 C336.91863241 215.40842236 321.58448104 215.44339301 306.25032043 215.47511292 C304.8736846 215.47796365 304.8736846 215.47796365 303.46923795 215.48087198 C290.43326507 215.50772716 277.39728841 215.5315967 264.36130764 215.55425698 C263.44264085 215.55585428 262.52397405 215.55745159 261.57746887 215.55909729 C260.65991866 215.56069076 259.74236844 215.56228422 258.79701368 215.56392597 C243.5167982 215.59066102 228.23661141 215.62504353 212.9564268 215.66575104 C203.5259904 215.69056553 194.0955849 215.70887006 184.66512098 215.71890665 C178.20958846 215.72627852 171.75409743 215.74077551 165.29859237 215.76097088 C161.56977821 215.77239924 157.84103112 215.78049405 154.11219788 215.77996254 C150.07778164 215.77945894 146.04356886 215.7942064 142.00918579 215.81054688 C140.82001 215.80793002 139.6308342 215.80531317 138.40562278 215.80261701 C137.33183834 215.80946581 136.2580539 215.8163146 135.15173054 215.82337093 C134.21956945 215.82510718 133.28740836 215.82684343 132.32699996 215.8286323 C129.90414564 215.87281897 129.90414564 215.87281897 128.10945129 218.08229065 C127.84132629 218.84541565 127.57320129 219.60854065 127.29695129 220.39479065 C125.67169478 224.07300275 124.38048053 225.64882177 121.10945129 228.08229065 C117.05258591 228.83866999 113.03531713 228.75466086 108.91877747 228.71339417 C107.68244064 228.72054947 106.44610382 228.72770477 105.17230225 228.7350769 C101.78731991 228.74907852 98.40386769 228.74066423 95.01901031 228.7209866 C91.46999083 228.70457159 87.92102024 228.71341745 84.37197876 228.71850586 C78.40926048 228.72302544 72.44685601 228.70717012 66.48420715 228.67921448 C59.60458734 228.64720694 52.72553481 228.64716146 45.84587497 228.66442925 C39.21486929 228.68033573 32.58407024 228.67353159 25.9530735 228.65649223 C23.13784043 228.64964509 20.32277415 228.65063011 17.50754356 228.65803719 C13.56758163 228.66717437 9.62819403 228.64307726 5.68830872 228.61573792 C4.52803162 228.62226379 3.36775452 228.62878967 2.1723175 228.63551331 C-5.62717302 228.54368705 -11.06134555 227.43030191 -17.09757996 222.15260315 C-17.62738464 221.51065002 -18.15718933 220.8686969 -18.70304871 220.20729065 C-19.24574402 219.57049377 -19.78843933 218.9336969 -20.34757996 218.27760315 C-24.10204826 212.93580268 -25.33280595 208.52826161 -25.29168701 202.05633545 C-25.29848368 201.26534983 -25.30528035 200.47436422 -25.31228298 199.65940934 C-25.33122193 197.01792692 -25.32882032 194.37690948 -25.32633972 191.73536682 C-25.33531934 189.83777268 -25.34552806 187.94018402 -25.35687256 186.04260254 C-25.38335653 180.89372806 -25.39040536 175.74500319 -25.39231992 170.59606719 C-25.39445353 167.37741719 -25.40086045 164.15880513 -25.40881157 160.94016457 C-25.43656013 149.70618401 -25.44881775 138.4723102 -25.44645691 127.23829651 C-25.44465491 116.77491071 -25.47630605 106.31198908 -25.5236879 95.84872073 C-25.56294597 86.85827779 -25.57900728 77.86798637 -25.57709068 68.87745839 C-25.57632662 63.51096576 -25.58483021 58.1448857 -25.61662483 52.77847862 C-25.64572241 47.72952005 -25.64586979 42.6813669 -25.62407494 37.63237953 C-25.62094401 35.78331447 -25.62798726 33.93419878 -25.64615631 32.08522034 C-25.80111008 15.21891507 -25.80111008 15.21891507 -20.41660976 8.60295582 C-18.45924651 6.65251347 -16.57680657 5.0073739 -14.20304871 3.58229065 C-13.45668152 3.11822815 -12.71031433 2.65416565 -11.94132996 2.17604065 C-7.84614038 -0.00806046 -4.57803737 -0.03000898 0 0 Z M1.10945129 22.08229065 C1.10945129 22.74229065 1.10945129 23.40229065 1.10945129 24.08229065 C0.44945129 24.08229065 -0.21054871 24.08229065 -0.89054871 24.08229065 C-1.52992371 25.15479065 -2.16929871 26.22729065 -2.82804871 27.33229065 C-3.18769714 27.9355719 -3.54734558 28.53885315 -3.91789246 29.16041565 C-5.97667162 33.22836484 -6.02105359 37.02792174 -6.03771973 41.54573059 C-6.04139641 42.19278859 -6.0450731 42.83984659 -6.04886121 43.5065124 C-6.05986619 45.67273044 -6.06373644 47.83890045 -6.06755066 50.00514221 C-6.07381769 51.55923616 -6.08046471 53.11332861 -6.08746338 54.66741943 C-6.1084767 59.76924095 -6.11886283 64.87106267 -6.12882996 69.97291565 C-6.13287845 71.73102077 -6.1369954 73.48912573 -6.14118004 75.24723053 C-6.16022528 83.50721995 -6.17445802 91.76720046 -6.18279201 100.02720761 C-6.19256397 109.55443771 -6.21888517 119.08143545 -6.2592929 128.60858369 C-6.2894729 135.9777325 -6.30426265 143.34681476 -6.30757302 150.71602416 C-6.30992124 155.11497423 -6.31885199 159.51367587 -6.34403419 163.91255951 C-6.3673532 168.05275162 -6.37153291 172.19253239 -6.36127281 176.33277321 C-6.36077828 177.84845919 -6.3670744 179.3641657 -6.38082886 180.87978935 C-6.46134123 190.28096177 -6.15755146 197.2046256 0.29304504 204.5783844 C1.03683411 205.21904846 1.78062317 205.85971252 2.54695129 206.51979065 C3.28816223 207.17850159 4.02937317 207.83721252 4.79304504 208.5158844 C9.26865668 211.54239412 14.13405764 211.20983927 19.39940262 211.21930504 C20.49048036 211.22328278 20.49048036 211.22328278 21.60360008 211.22734088 C24.04796669 211.23501787 26.49228292 211.23559243 28.93666077 211.2361908 C30.70410215 211.24020645 32.47154261 211.24464484 34.23898196 211.24947035 C39.1015842 211.26142978 43.96417651 211.26708282 48.82679057 211.27165151 C54.06892087 211.27760979 59.31103932 211.28921888 64.55316162 211.29994202 C77.21418406 211.32445784 89.87521042 211.33909043 102.53624928 211.35200208 C106.11156339 211.35571412 109.6868771 211.35968733 113.26219082 211.36375475 C135.46071041 211.38898749 157.65923062 211.4110422 179.85776138 211.42348289 C184.99878695 211.42641262 190.1398125 211.42937428 195.28083801 211.43238831 C196.55862345 211.43313436 197.83640888 211.43388041 199.15291509 211.43464907 C219.86207658 211.44730849 240.57115232 211.48054037 261.28027371 211.52219014 C282.5371393 211.56459156 303.79396097 211.58817571 325.05086875 211.59340346 C336.98785646 211.59681921 348.92471007 211.6085942 360.86165619 211.6415062 C371.02526125 211.66948293 381.18870473 211.68051633 391.35234532 211.66931073 C396.53830657 211.6641184 401.72392929 211.66704855 406.90984154 211.69177628 C411.65848901 211.71423022 416.406554 211.71355882 421.15521142 211.6945724 C422.87190781 211.69176703 424.58864338 211.69740075 426.30527666 211.71238534 C437.07765325 211.80065941 444.91380025 210.96282334 453.17195129 203.45729065 C455.42551466 201.2056998 455.42551466 201.2056998 455.10945129 198.08229065 C455.76945129 198.08229065 456.42945129 198.08229065 457.10945129 198.08229065 C458.1997917 194.54585613 458.24049162 191.26288696 458.24989319 187.57415771 C458.25286431 186.9223106 458.25583543 186.27046348 458.25889659 185.59886342 C458.26756225 183.41648692 458.26909002 181.23416541 458.27058411 179.05177307 C458.27521377 177.48620487 458.28023864 175.92063779 458.28562927 174.35507202 C458.29874054 170.1029088 458.30519569 165.85076135 458.30963993 161.59858108 C458.31257258 158.94112864 458.31667774 156.28368051 458.3211441 153.62623024 C458.33481538 145.309109 458.34448398 136.9919976 458.34834599 128.6748659 C458.35282665 119.07861798 458.37037644 109.4825125 458.39934659 99.8863079 C458.42097111 92.4653695 458.43105068 85.04447116 458.43238711 77.6235016 C458.43343454 73.19277456 458.43932924 68.76218149 458.45720673 64.33148766 C458.47370085 60.16262123 458.47583645 55.9939893 458.46706772 51.82510185 C458.46629807 50.29771547 458.47063052 48.77031641 458.48052597 47.24296188 C458.49327419 45.15215548 458.48735404 43.06217606 458.47694397 40.97137451 C458.47914381 39.21900372 458.47914381 39.21900372 458.48138809 37.4312315 C457.84292131 31.682439 455.83058006 27.08795945 451.29695129 23.33229065 C450.65113098 22.7805719 450.00531067 22.22885315 449.33992004 21.66041565 C444.11344664 17.96252554 440.10090089 16.70728866 433.6880722 16.70756054 C432.59391551 16.70146945 432.59391551 16.70146945 431.47765464 16.69525531 C429.0321743 16.68530551 426.58726743 16.69673913 424.14179993 16.70806885 C422.37135596 16.70532839 420.60091363 16.70127644 418.83047533 16.69602519 C413.96427619 16.6854274 409.09826044 16.69357448 404.23206925 16.70477569 C398.984559 16.71360898 393.73707298 16.7051767 388.48956299 16.69891357 C378.20923548 16.68941846 367.92897809 16.69603168 357.64865577 16.70817652 C345.68149791 16.7217882 333.7143568 16.72015939 321.74719316 16.71804319 C300.39739109 16.71485226 279.04762238 16.72652697 257.6978302 16.74610901 C236.97223393 16.76511359 216.24667675 16.77219668 195.52107239 16.76661682 C172.96240806 16.76056144 150.40376092 16.76073169 127.84509802 16.77210265 C125.44045353 16.77330997 123.03580904 16.77451595 120.63116455 16.7757206 C119.44797545 16.77632414 118.26478634 16.77692767 117.04574302 16.7775495 C108.70032369 16.78143174 100.35491076 16.78103384 92.00949097 16.77913475 C81.84182598 16.77701442 71.67419526 16.78222457 61.50653994 16.7967483 C56.31700685 16.80400071 51.1275237 16.8080621 45.93798637 16.80350494 C41.189687 16.79943663 36.44149089 16.80457094 31.6932072 16.81713102 C29.97323975 16.82006538 28.2532626 16.81961665 26.5332976 16.81548794 C24.1990181 16.81039231 21.86508558 16.81755409 19.53083038 16.82781506 C18.23316097 16.82868183 16.93549155 16.82954861 15.59849882 16.83044165 C10.10477888 17.22699339 5.60831551 18.90662179 1.10945129 22.08229065 Z " fill="#73B746" transform="translate(86.89054870605469,159.91770935058594)"/>
<path d="M0 0 C1.79065939 -0.00532734 3.5813143 -0.0123941 5.3719607 -0.02104706 C10.28488966 -0.03967639 15.19751724 -0.03336835 20.11045873 -0.02289402 C25.41186168 -0.01590289 30.71320267 -0.0318993 36.0145874 -0.04489136 C46.39725516 -0.06653794 56.77981335 -0.06640276 67.16249626 -0.05826581 C75.60093156 -0.05196702 84.03933489 -0.05310175 92.47776985 -0.05953789 C94.27900638 -0.06089037 94.27900638 -0.06089037 96.11663153 -0.06227018 C98.55606568 -0.06412137 100.99549983 -0.06598393 103.43493397 -0.06785773 C126.312775 -0.08443849 149.19055436 -0.07571462 172.06839169 -0.05887216 C193.00046967 -0.04417485 213.93240412 -0.0588036 234.86446362 -0.08764232 C256.35648187 -0.11703207 277.84843386 -0.12800983 299.34047133 -0.11846012 C301.77125743 -0.11743756 304.20204354 -0.11644295 306.63282967 -0.11547661 C308.42682598 -0.11476202 308.42682598 -0.11476202 310.25706465 -0.114033 C318.6847782 -0.11186833 327.11242906 -0.12167582 335.54012871 -0.13624763 C345.81164596 -0.15375968 356.08298019 -0.15366969 366.35449021 -0.13089598 C371.59513747 -0.11974368 376.83546215 -0.11661389 382.07609558 -0.13519669 C386.87460838 -0.15199284 391.67251701 -0.14566192 396.47099061 -0.1209799 C398.20575616 -0.1160934 399.94057036 -0.11962104 401.67529523 -0.13246734 C411.66173956 -0.2010771 419.90850224 -0.05728411 427.45226711 7.29931921 C432.48838644 12.68717842 434.99330731 17.94901184 435.01661682 25.40170288 C435.02270792 26.07018192 435.02879903 26.73866097 435.03507471 27.42739695 C435.05164615 29.654334 435.04693752 31.88069557 435.04212952 34.10768127 C435.04947337 35.70971263 435.05806052 37.31173871 435.0677948 38.91375732 C435.08998859 43.25688999 435.09294248 47.5998328 435.09104729 51.94301438 C435.09092746 55.57354876 435.0994966 59.20404308 435.1078248 62.8345663 C435.12705196 71.40349646 435.12994553 79.9723292 435.1231842 88.54127502 C435.11654679 97.3686874 435.13939718 106.19568156 435.17649794 115.02300912 C435.20723252 122.61219205 435.21855081 130.20124072 435.21466112 137.79048461 C435.21259715 142.31856904 435.21801792 146.84632813 435.24255371 151.37435341 C435.26488003 155.63533302 435.2628946 159.89563491 435.24262619 164.15661812 C435.23922627 165.71541627 435.24426124 167.27426055 435.25860977 168.83299637 C435.34113583 178.46723056 434.83318676 186.15388494 427.83750153 193.35067463 C422.20435355 198.59594643 416.89093322 200.88889041 409.12832832 200.89498043 C408.39104785 200.89964035 407.65376738 200.90430027 406.89414507 200.9091014 C404.42198038 200.92105857 401.95036454 200.91165337 399.47819519 200.90234375 C397.68855164 200.90651636 395.89891073 200.91199347 394.10927474 200.91866356 C389.18994012 200.93314655 384.27077263 200.92886452 379.35142875 200.92149675 C374.04661205 200.91677442 368.741832 200.92926666 363.43702698 200.93951416 C353.04374063 200.95672605 342.65051468 200.95753719 332.25721778 200.95230126 C323.81062607 200.94826265 315.36405224 200.94969943 306.9174614 200.95504951 C305.71607734 200.95579794 304.51469328 200.95654636 303.27690365 200.95731746 C300.8364207 200.95884891 298.39593775 200.96038726 295.95545481 200.96193243 C273.05954113 200.9756662 250.1636616 200.97021369 227.2677487 200.95874722 C206.31548845 200.94881462 185.36331651 200.96175444 164.41106988 200.98568141 C142.9044361 201.01005668 121.39784346 201.0196841 99.89119613 201.01302868 C87.81400032 201.00953288 75.73687243 201.01179231 63.65968704 201.02927971 C53.37823537 201.04398205 43.09689944 201.0446629 32.81545009 201.0272088 C27.56890444 201.01868011 22.32256574 201.01659486 17.07603073 201.03186035 C12.27325138 201.04566176 7.47085715 201.0410029 2.66810034 201.02162112 C0.93059952 201.0178468 -0.80693182 201.02082414 -2.54440556 201.03123277 C-18.5637072 201.12037537 -18.5637072 201.12037537 -25.37779236 196.5146637 C-25.37779236 195.8546637 -25.37779236 195.1946637 -25.37779236 194.5146637 C-26.28658142 194.13567932 -26.28658142 194.13567932 -27.21372986 193.7490387 C-29.67619967 192.34445303 -30.55466754 191.17509082 -32.00279236 188.7646637 C-32.40755798 188.10981995 -32.81232361 187.4549762 -33.22935486 186.7802887 C-35.74430994 181.81881269 -36.62892758 177.43683009 -36.6452179 171.89337158 C-36.65374786 170.57710785 -36.66227783 169.26084412 -36.67106628 167.9046936 C-36.67036735 166.45787036 -36.66944434 165.01104722 -36.6683197 163.56422424 C-36.67430813 162.03116021 -36.6811144 160.4980992 -36.68867493 158.96504211 C-36.70631062 154.80995076 -36.71102929 150.65494183 -36.7123065 146.49981666 C-36.71373009 143.90095972 -36.71800364 141.30212362 -36.72330093 138.70327187 C-36.74179351 129.6284261 -36.74997256 120.55363901 -36.74839783 111.47877502 C-36.74719679 103.03314455 -36.76829356 94.58776978 -36.79988515 86.14220399 C-36.82607767 78.87999452 -36.83676387 71.61786841 -36.83548701 64.3556121 C-36.83497823 60.02318405 -36.84061473 55.69098332 -36.86184311 51.35860252 C-36.88127569 47.2815591 -36.881316 43.20495866 -36.86680984 39.12789917 C-36.86472681 37.63682721 -36.86939241 36.14572715 -36.88153076 34.65470314 C-36.95863532 24.5222883 -36.07430137 16.07599794 -29.12779236 8.2021637 C-28.60701111 7.58728088 -28.08622986 6.97239807 -27.54966736 6.33888245 C-19.14166469 -0.7232349 -10.38404727 -0.05376774 0 0 Z M-25.37779236 8.5146637 C-25.37779236 9.1746637 -25.37779236 9.8346637 -25.37779236 10.5146637 C-26.03779236 10.5146637 -26.69779236 10.5146637 -27.37779236 10.5146637 C-28.01716736 11.5871637 -28.65654236 12.6596637 -29.31529236 13.7646637 C-29.6749408 14.36794495 -30.03458923 14.9712262 -30.40513611 15.5927887 C-32.46391527 19.66073789 -32.50829724 23.46029479 -32.52496338 27.97810364 C-32.52864007 28.62516164 -32.53231676 29.27221963 -32.53610486 29.93888545 C-32.54710984 32.10510348 -32.55098009 34.2712735 -32.55479431 36.43751526 C-32.56106134 37.9916092 -32.56770836 39.54570166 -32.57470703 41.09979248 C-32.59572035 46.20161399 -32.60610649 51.30343571 -32.61607361 56.4052887 C-32.62012211 58.16339381 -32.62423906 59.92149878 -32.62842369 61.67960358 C-32.64746893 69.939593 -32.66170167 78.19957351 -32.67003566 86.45958066 C-32.67980762 95.98681076 -32.70612882 105.5138085 -32.74653655 115.04095674 C-32.77671655 122.41010554 -32.7915063 129.77918781 -32.79481667 137.14839721 C-32.79716489 141.54734727 -32.80609564 145.94604891 -32.83127785 150.34493256 C-32.85459686 154.48512467 -32.85877656 158.62490544 -32.84851646 162.76514626 C-32.84802193 164.28083224 -32.85431806 165.79653874 -32.86807251 167.3121624 C-32.94858489 176.71333482 -32.64479512 183.63699865 -26.19419861 191.01075745 C-25.45040955 191.65142151 -24.70662048 192.29208557 -23.94029236 192.9521637 C-23.19908142 193.61087463 -22.45787048 194.26958557 -21.69419861 194.94825745 C-17.21858697 197.97476717 -12.35318602 197.64221232 -7.08784103 197.65167809 C-5.99676329 197.65565583 -5.99676329 197.65565583 -4.88364357 197.65971392 C-2.43927697 197.66739092 0.00503927 197.66796548 2.44941711 197.66856384 C4.21685849 197.67257949 5.98429896 197.67701789 7.75173831 197.6818434 C12.61434055 197.69380283 17.47693286 197.69945586 22.33954692 197.70402455 C27.58167721 197.70998284 32.82379567 197.72159193 38.06591797 197.73231506 C50.72694041 197.75683089 63.38796676 197.77146348 76.04900563 197.78437513 C79.62431973 197.78808717 83.19963345 197.79206037 86.77494717 197.7961278 C108.97346676 197.82136054 131.17198696 197.84341525 153.37051773 197.85585594 C158.5115433 197.85878566 163.65256884 197.86174733 168.79359436 197.86476135 C170.0713798 197.8655074 171.34916523 197.86625345 172.66567144 197.86702211 C193.37483292 197.87968154 214.08390867 197.91291342 234.79303005 197.95456319 C256.04989565 197.99696461 277.30671732 198.02054876 298.5636251 198.02577651 C310.50061281 198.02919226 322.43746642 198.04096725 334.37441254 198.07387924 C344.5380176 198.10185598 354.70146108 198.11288938 364.86510167 198.10168378 C370.05106292 198.09649145 375.23668564 198.0994216 380.42259789 198.12414932 C385.17124536 198.14660326 389.91931035 198.14593187 394.66796777 198.12694545 C396.38466416 198.12414008 398.10139973 198.12977379 399.81803301 198.14475839 C410.5904096 198.23303245 418.4265566 197.39519639 426.68470764 189.8896637 C428.93827101 187.63807285 428.93827101 187.63807285 428.62220764 184.5146637 C429.28220764 184.5146637 429.94220764 184.5146637 430.62220764 184.5146637 C431.71254804 180.97822918 431.75324796 177.69526001 431.76264954 174.00653076 C431.76562066 173.35468365 431.76859178 172.70283653 431.77165294 172.03123647 C431.7803186 169.84885997 431.78184637 167.66653845 431.78334045 165.48414612 C431.78797012 163.91857791 431.79299498 162.35301084 431.79838562 160.78744507 C431.81149689 156.53528184 431.81795204 152.2831344 431.82239628 148.03095412 C431.82532892 145.37350169 431.82943409 142.71605355 431.83390045 140.05860329 C431.84757173 131.74148205 431.85724032 123.42437065 431.86110234 115.10723895 C431.865583 105.51099103 431.88313279 95.91488555 431.91210294 86.31868094 C431.93372745 78.89774255 431.94380703 71.47684421 431.94514346 64.05587465 C431.94619089 59.62514761 431.95208559 55.19455453 431.96996307 50.7638607 C431.98645719 46.59499428 431.9885928 42.42636235 431.97982407 38.2574749 C431.97905442 36.73008852 431.98338687 35.20268945 431.99328232 33.67533493 C432.00603054 31.58452852 432.00011039 29.4945491 431.98970032 27.40374756 C431.99190016 25.65137677 431.99190016 25.65137677 431.99414444 23.86360455 C431.35567766 18.11481205 429.34333641 13.5203325 424.80970764 9.7646637 C424.16388733 9.21294495 423.51806702 8.6612262 422.85267639 8.0927887 C417.62620299 4.39489858 413.61365724 3.13966171 407.20082855 3.13993359 C406.10667186 3.1338425 406.10667186 3.1338425 404.99041098 3.12762836 C402.54493065 3.11767856 400.10002378 3.12911218 397.65455627 3.14044189 C395.88411231 3.13770144 394.11366997 3.13364948 392.34323168 3.12839824 C387.47703253 3.11780045 382.61101678 3.12594752 377.7448256 3.13714874 C372.49731535 3.14598203 367.24982932 3.13754975 362.00231934 3.13128662 C351.72199182 3.12179151 341.44173443 3.12840473 331.16141212 3.14054956 C319.19425425 3.15416124 307.22711315 3.15253244 295.25994951 3.15041623 C273.91014744 3.1472253 252.56037872 3.15890002 231.21058655 3.17848206 C210.48499028 3.19748664 189.7594331 3.20456972 169.03382874 3.19898987 C146.4751644 3.19293449 123.91651727 3.19310473 101.35785437 3.2044757 C98.95320988 3.20568301 96.54856539 3.206889 94.1439209 3.20809364 C92.96073179 3.20869718 91.77754269 3.20930072 90.55849937 3.20992255 C82.21308004 3.21380479 73.86766711 3.21340689 65.52224731 3.2115078 C55.35458233 3.20938747 45.18695161 3.21459762 35.01929629 3.22912135 C29.82976319 3.23637375 24.64028005 3.24043514 19.45074272 3.23587799 C14.70244335 3.23180968 9.95424724 3.23694399 5.20596355 3.24950407 C3.4859961 3.25243843 1.76601895 3.25198969 0.04605395 3.24786099 C-2.28822555 3.24276536 -4.62215807 3.24992713 -6.95641327 3.2601881 C-8.25408268 3.26105488 -9.5517521 3.26192166 -10.88874483 3.2628147 C-16.38246478 3.65936644 -20.87892814 5.33899484 -25.37779236 8.5146637 Z " fill="#EFFDE5" transform="translate(113.37779235839844,173.48533630371094)"/>
<path d="M0 0 C1.79065939 -0.00532734 3.5813143 -0.0123941 5.3719607 -0.02104706 C10.28488966 -0.03967639 15.19751724 -0.03336835 20.11045873 -0.02289402 C25.41186168 -0.01590289 30.71320267 -0.0318993 36.0145874 -0.04489136 C46.39725516 -0.06653794 56.77981335 -0.06640276 67.16249626 -0.05826581 C75.60093156 -0.05196702 84.03933489 -0.05310175 92.47776985 -0.05953789 C94.27900638 -0.06089037 94.27900638 -0.06089037 96.11663153 -0.06227018 C98.55606568 -0.06412137 100.99549983 -0.06598393 103.43493397 -0.06785773 C126.312775 -0.08443849 149.19055436 -0.07571462 172.06839169 -0.05887216 C193.00046967 -0.04417485 213.93240412 -0.0588036 234.86446362 -0.08764232 C256.35648187 -0.11703207 277.84843386 -0.12800983 299.34047133 -0.11846012 C301.77125743 -0.11743756 304.20204354 -0.11644295 306.63282967 -0.11547661 C308.42682598 -0.11476202 308.42682598 -0.11476202 310.25706465 -0.114033 C318.6847782 -0.11186833 327.11242906 -0.12167582 335.54012871 -0.13624763 C345.81164596 -0.15375968 356.08298019 -0.15366969 366.35449021 -0.13089598 C371.59513747 -0.11974368 376.83546215 -0.11661389 382.07609558 -0.13519669 C386.87460838 -0.15199284 391.67251701 -0.14566192 396.47099061 -0.1209799 C398.20575616 -0.1160934 399.94057036 -0.11962104 401.67529523 -0.13246734 C411.66284105 -0.20108467 419.89253474 -0.05108126 427.44811672 7.28833288 C430.56571617 10.63685036 432.99746697 14.21387957 434.62220764 18.5146637 C434.30319857 19.85149656 433.9668928 21.18421978 433.62220764 22.5146637 C433.52122275 24.64738611 433.47600336 26.78296694 433.46398926 28.91804504 C433.45420044 30.23615173 433.44441162 31.55425842 433.43432617 32.91230774 C433.42842231 34.37123072 433.42261184 35.83015407 433.41688538 37.28907776 C433.40730435 38.8265967 433.39729414 40.36411302 433.3868866 41.90162659 C433.3598558 46.07479357 433.33883635 50.24797184 433.31888461 54.42117786 C433.29701382 58.78274402 433.26963047 63.14427546 433.24282837 67.5058136 C433.19291629 75.76466496 433.14797194 84.02353561 433.10480601 92.28242469 C433.05542096 101.68502168 433.00050752 111.08758383 432.94512641 120.49014711 C432.83132915 139.83162029 432.72448518 159.17312635 432.62220764 178.5146637 C432.29220764 178.5146637 431.96220764 178.5146637 431.62220764 178.5146637 C431.61981929 177.70682654 431.61743093 176.89898939 431.61497021 176.06667233 C431.55581329 156.40283624 431.48025873 136.7391256 431.38649273 117.07542324 C431.34154272 107.56616767 431.3021262 98.05694948 431.27577209 88.54762268 C431.2527856 80.25850772 431.21938025 71.96951114 431.17350608 63.68049008 C431.14958267 59.29221886 431.13084811 54.90406483 431.12459373 50.5157299 C431.1185389 46.38296483 431.09852468 42.25049956 431.06793213 38.11784554 C431.0591583 36.60339058 431.05542797 35.08889644 431.05719948 33.57441711 C431.05885874 31.50084627 431.04209939 29.42818237 431.02093506 27.35473633 C431.01632609 26.19604255 431.01171713 25.03734877 431.0069685 23.84354305 C430.38885305 18.49572315 428.62882544 13.71995793 424.30970764 10.2646637 C423.75669983 9.80575745 423.20369202 9.3468512 422.63392639 8.8740387 C417.43548683 5.36130672 413.49334232 4.13966681 407.20082855 4.13993359 C406.10667186 4.1338425 406.10667186 4.1338425 404.99041098 4.12762836 C402.54493065 4.11767856 400.10002378 4.12911218 397.65455627 4.14044189 C395.88411231 4.13770144 394.11366997 4.13364948 392.34323168 4.12839824 C387.47703253 4.11780045 382.61101678 4.12594752 377.7448256 4.13714874 C372.49731535 4.14598203 367.24982932 4.13754975 362.00231934 4.13128662 C351.72199182 4.12179151 341.44173443 4.12840473 331.16141212 4.14054956 C319.19425425 4.15416124 307.22711315 4.15253244 295.25994951 4.15041623 C273.91014744 4.1472253 252.56037872 4.15890002 231.21058655 4.17848206 C210.48499028 4.19748664 189.7594331 4.20456972 169.03382874 4.19898987 C146.4751644 4.19293449 123.91651727 4.19310473 101.35785437 4.2044757 C98.95320988 4.20568301 96.54856539 4.206889 94.1439209 4.20809364 C92.96073179 4.20869718 91.77754269 4.20930072 90.55849937 4.20992255 C82.21308004 4.21380479 73.86766711 4.21340689 65.52224731 4.2115078 C55.35458233 4.20938747 45.18695161 4.21459762 35.01929629 4.22912135 C29.82976319 4.23637375 24.64028005 4.24043514 19.45074272 4.23587799 C14.70244335 4.23180968 9.95424724 4.23694399 5.20596355 4.24950407 C3.4859961 4.25243843 1.76601895 4.25198969 0.04605395 4.24786099 C-2.28822555 4.24276536 -4.62215807 4.24992713 -6.95641327 4.2601881 C-8.25408268 4.26105488 -9.5517521 4.26192166 -10.88874483 4.2628147 C-16.12356978 4.64067869 -20.56532734 6.53306046 -25.37779236 8.5146637 C-25.37779236 9.1746637 -25.37779236 9.8346637 -25.37779236 10.5146637 C-26.03779236 10.5146637 -26.69779236 10.5146637 -27.37779236 10.5146637 C-29.85481118 16.53028082 -31.62473221 21.62713317 -31.65626526 28.19651794 C-31.66205766 28.84276221 -31.66785006 29.48900648 -31.67381799 30.15483391 C-31.69073336 32.30591597 -31.69368709 34.45678238 -31.69664001 36.60792542 C-31.70594406 38.15559408 -31.71611344 39.70325776 -31.7270813 41.25091553 C-31.75434173 45.44256472 -31.76951896 49.63418038 -31.78250933 53.82589483 C-31.79815719 58.21015607 -31.82494214 62.594349 -31.85054016 66.9785614 C-31.89729863 75.276297 -31.93405693 83.57404548 -31.96721303 91.87184536 C-32.00545513 101.32045641 -32.05485983 110.7689988 -32.10519719 120.21755195 C-32.20847344 139.64987226 -32.29774785 159.0822345 -32.37779236 178.5146637 C-32.70779236 178.5146637 -33.03779236 178.5146637 -33.37779236 178.5146637 C-33.37779236 127.6946637 -33.37779236 76.8746637 -33.37779236 24.5146637 C-34.03779236 24.5146637 -34.69779236 24.5146637 -35.37779236 24.5146637 C-35.37779236 75.3346637 -35.37779236 126.1546637 -35.37779236 178.5146637 C-35.70779236 178.5146637 -36.03779236 178.5146637 -36.37779236 178.5146637 C-36.47132427 158.19988447 -36.54181495 137.88514907 -36.58504105 117.57019901 C-36.6056471 108.13714452 -36.63373024 98.70422399 -36.67955017 89.27125549 C-36.7194779 81.04738076 -36.74523939 72.82360308 -36.75414634 64.59963411 C-36.75935105 60.2469652 -36.77154303 55.89457386 -36.80071259 51.54199409 C-36.82797565 47.4404464 -36.83621551 43.33928916 -36.83022308 39.23765945 C-36.83131847 37.73690223 -36.83920749 36.23613119 -36.85461426 34.73545265 C-36.95385032 24.56585202 -36.10154518 16.10687867 -29.12779236 8.2021637 C-28.60701111 7.58728088 -28.08622986 6.97239807 -27.54966736 6.33888245 C-19.14166469 -0.7232349 -10.38404727 -0.05376774 0 0 Z " fill="#DEF9C9" transform="translate(113.37779235839844,173.48533630371094)"/>
<path d="M0 0 C0.66 0.33 1.32 0.66 2 1 C3.61934513 1.09687854 5.24266358 1.13023426 6.86490154 1.13307858 C7.89913523 1.13731962 8.93336892 1.14156067 9.99894303 1.14593023 C11.14395415 1.1455441 12.28896528 1.14515797 13.46867371 1.14476013 C14.67825865 1.14828698 15.88784359 1.15181382 17.13408262 1.15544754 C20.50232996 1.16430566 23.87053128 1.16869969 27.23878586 1.17129052 C30.86742031 1.17517783 34.49603967 1.1848156 38.12466431 1.19384766 C44.41667055 1.20880215 50.70867559 1.22033972 57.00069237 1.22979546 C66.10559681 1.24365658 75.21047339 1.26484309 84.31535784 1.28822399 C99.09638107 1.32616531 113.87740934 1.36112354 128.65844727 1.39282227 C129.54369268 1.39472276 130.42893809 1.39662325 131.34100912 1.39858133 C143.89791183 1.42540087 156.45481845 1.44927673 169.01172922 1.47196633 C169.89545867 1.47356363 170.77918813 1.47516094 171.68969727 1.47680664 C172.57235168 1.47840011 173.4550061 1.47999357 174.36440762 1.48163532 C189.08293673 1.50840524 203.80143626 1.54280694 218.51993352 1.58346039 C227.60083603 1.60823519 236.6817067 1.62656202 245.76263765 1.636616 C251.98743035 1.64400888 258.21218034 1.65853803 264.43694475 1.67868023 C268.02863983 1.69006791 271.62026605 1.69820598 275.21198082 1.69767189 C279.1068484 1.69716473 283.00157254 1.71198168 286.89640808 1.72825623 C288.59719435 1.72433094 288.59719435 1.72433094 290.33233994 1.72032636 C295.94765132 1.75704853 300.69936711 2.10076232 306 4 C306 4.33 306 4.66 306 5 C204.36 5 102.72 5 -2 5 C-1.34 3.35 -0.68 1.7 0 0 Z " fill="#52992B" transform="translate(222,366)"/>
<path d="M0 0 C0 0.66 0 1.32 0 2 C1.32 2.33 2.64 2.66 4 3 C3.40832031 3.19335938 2.81664063 3.38671875 2.20703125 3.5859375 C-1.9146645 4.94414719 -5.9950524 6.32050585 -10 8 C-10 8.66 -10 9.32 -10 10 C-10.66 10 -11.32 10 -12 10 C-13.92205381 14.58335908 -15.45730076 19.27934033 -17 24 C-17.99 24 -18.98 24 -20 24 C-20.55930561 18.40694393 -19.1343437 14.53516771 -16 10 C-11.96413934 5.68935734 -6.25154114 0 0 0 Z " fill="#E9F6DE" transform="translate(98,174)"/>
<path d="M0 0 C0.33 0.66 0.66 1.32 1 2 C1.66 2 2.32 2 3 2 C0.4849911 10.80253115 -4.22220242 16.17232388 -12.0625 20.8125 C-14.98858132 21.99538394 -16.88509559 22.27484451 -20 22 C-19 19 -19 19 -16.63671875 17.53515625 C-15.66347656 17.04917969 -14.69023438 16.56320312 -13.6875 16.0625 C-8.70630148 13.56857551 -4.82526672 11.47580016 -3 6 C-2.34 6 -1.68 6 -1 6 C-0.67 4.02 -0.34 2.04 0 0 Z " fill="#E6F4D8" transform="translate(545,352)"/>
<path d="M0 0 C6.83089033 0.51231677 12.34519327 3.8243176 16.8125 8.9375 C22.2 16.48 22.2 16.48 21.6875 20.375 C21.3471875 21.179375 21.3471875 21.179375 21 22 C20.34 22 19.68 22 19 22 C18.79246094 21.41992188 18.58492187 20.83984375 18.37109375 20.2421875 C15.06453327 11.85818897 10.24157 7.61825024 2 4 C2 3.01 2 2.02 2 1 C1.34 0.67 0.68 0.34 0 0 Z " fill="#EAF6D9" transform="translate(526,174)"/>
<path d="M0 0 C1.32 0 2.64 0 4 0 C4.495 1.175625 4.99 2.35125 5.5 3.5625 C8.29182907 9.09700621 12.41442687 13.62796947 18.296875 15.87890625 C20.6986906 16.52259695 20.6986906 16.52259695 24 17 C20.25 18.125 20.25 18.125 18 17 C18 17.66 18 18.32 18 19 C12.25 17.125 12.25 17.125 10 16 C10 15.34 10 14.68 10 14 C9.09314453 13.62488281 9.09314453 13.62488281 8.16796875 13.2421875 C5.67213513 11.81214229 4.77775957 10.57480307 3.3125 8.125 C2.89613281 7.44695312 2.47976562 6.76890625 2.05078125 6.0703125 C1.02230531 4.04394726 0.45279373 2.21918685 0 0 Z " fill="#EBF5DC" transform="translate(78,354)"/>
<path d="M0 0 C5.28137429 0.51525603 8.57221156 2.25477117 13 5 C12.67 5.99 12.34 6.98 12 8 C12.66 8.33 13.32 8.66 14 9 C10.55639368 9 9.25204608 8.20408468 6.3125 6.5 C5.50425781 6.0359375 4.69601562 5.571875 3.86328125 5.09375 C3.24839844 4.7328125 2.63351562 4.371875 2 4 C2 3.01 2 2.02 2 1 C1.34 0.67 0.68 0.34 0 0 Z " fill="#E0F0CF" transform="translate(526,174)"/>
<path d="M0 0 C0.33 0 0.66 0 1 0 C1.02687279 1.81242052 1.04633715 3.62495233 1.0625 5.4375 C1.07410156 6.44683594 1.08570313 7.45617187 1.09765625 8.49609375 C1 11 1 11 0 12 C-0.65756899 15.60347806 -1.24814816 19.21021953 -1.80664062 22.83007812 C-2.78671875 28.78671875 -2.78671875 28.78671875 -5 31 C-4.5465399 27.7076434 -4.08630941 24.41626521 -3.625 21.125 C-3.49867188 20.2071875 -3.37234375 19.289375 -3.2421875 18.34375 C-2.37387462 12.17872855 -1.28967197 6.09076144 0 0 Z " fill="#60A92F" transform="translate(261,257)"/>
<path d="M0 0 C0 0.66 0 1.32 0 2 C-3.13498292 3.85776765 -5.37471432 4.20140476 -9 4 C-8.67 3.01 -8.34 2.02 -8 1 C-5.29120665 -0.35439668 -2.99066732 -0.06501451 0 0 Z " fill="#EDF5DE" transform="translate(534,370)"/>
<path d="M0 0 C3.3 0.99 6.6 1.98 10 3 C6 4 6 4 4 3 C4 3.66 4 4.32 4 5 C2.02 4.34 0.04 3.68 -2 3 C-1.34 2.67 -0.68 2.34 0 2 C0 1.34 0 0.68 0 0 Z " fill="#E7F4D3" transform="translate(92,368)"/>
<path d="M0 0 C0 3 0 3 -1.3125 4.38671875 C-2.875 5.59114583 -4.4375 6.79557292 -6 8 C-6.33 7.01 -6.66 6.02 -7 5 C-4.69 3.35 -2.38 1.7 0 0 Z " fill="#75B151" transform="translate(75,162)"/>
<path d="M0 0 C1.11375 0.3403125 1.11375 0.3403125 2.25 0.6875 C1.125 2.25 1.125 2.25 -0.75 3.6875 C-3.9375 3.375 -3.9375 3.375 -6.75 2.6875 C-4.29511132 0.41445492 -3.41240272 -0.38777304 0 0 Z " fill="#D5EFBD" transform="translate(536.75,367.3125)"/>
</svg>
